<mxfile host="app.diagrams.net" modified="2023-11-17T22:56:11.361Z" agent="Mozilla/5.0 (Windows NT 10.0; Win64; x64) AppleWebKit/537.36 (KHTML, like Gecko) Chrome/119.0.0.0 Safari/537.36" etag="A7FEg4edRgigSCLwI1lb" version="22.1.3" type="github">
  <diagram name="Página-1" id="cHoH6hobNKFJrHtPOA62">
    <mxGraphModel dx="1687" dy="882" grid="1" gridSize="10" guides="1" tooltips="1" connect="1" arrows="1" fold="1" page="1" pageScale="1" pageWidth="1920" pageHeight="1200" math="0" shadow="0">
      <root>
        <mxCell id="0" />
        <mxCell id="1" parent="0" />
        <mxCell id="MUiipELaq2bzcH-Cd9GB-2" value="" style="whiteSpace=wrap;html=1;aspect=fixed;" vertex="1" parent="1">
          <mxGeometry x="410" y="30" width="830" height="830" as="geometry" />
        </mxCell>
        <mxCell id="MUiipELaq2bzcH-Cd9GB-3" value="Funcionalidades do sistema" style="text;html=1;strokeColor=none;fillColor=none;align=center;verticalAlign=middle;whiteSpace=wrap;rounded=0;fontSize=17;" vertex="1" parent="1">
          <mxGeometry x="795" y="60" width="60" height="30" as="geometry" />
        </mxCell>
        <mxCell id="MUiipELaq2bzcH-Cd9GB-7" style="edgeStyle=orthogonalEdgeStyle;rounded=0;orthogonalLoop=1;jettySize=auto;html=1;entryX=0;entryY=0.5;entryDx=0;entryDy=0;" edge="1" parent="1" source="MUiipELaq2bzcH-Cd9GB-5" target="MUiipELaq2bzcH-Cd9GB-6">
          <mxGeometry relative="1" as="geometry">
            <Array as="points">
              <mxPoint x="460" y="340" />
              <mxPoint x="460" y="550" />
            </Array>
          </mxGeometry>
        </mxCell>
        <mxCell id="MUiipELaq2bzcH-Cd9GB-20" style="edgeStyle=orthogonalEdgeStyle;rounded=0;orthogonalLoop=1;jettySize=auto;html=1;entryX=0;entryY=0.5;entryDx=0;entryDy=0;" edge="1" parent="1" source="MUiipELaq2bzcH-Cd9GB-5" target="MUiipELaq2bzcH-Cd9GB-16">
          <mxGeometry relative="1" as="geometry">
            <Array as="points">
              <mxPoint x="460" y="320" />
              <mxPoint x="460" y="200" />
            </Array>
          </mxGeometry>
        </mxCell>
        <mxCell id="MUiipELaq2bzcH-Cd9GB-21" style="edgeStyle=orthogonalEdgeStyle;rounded=0;orthogonalLoop=1;jettySize=auto;html=1;entryX=0;entryY=0.5;entryDx=0;entryDy=0;" edge="1" parent="1" source="MUiipELaq2bzcH-Cd9GB-5" target="MUiipELaq2bzcH-Cd9GB-15">
          <mxGeometry relative="1" as="geometry" />
        </mxCell>
        <mxCell id="MUiipELaq2bzcH-Cd9GB-5" value="Usuário" style="shape=umlActor;verticalLabelPosition=bottom;verticalAlign=top;html=1;outlineConnect=0;fontSize=16;" vertex="1" parent="1">
          <mxGeometry x="280" y="260" width="60" height="140" as="geometry" />
        </mxCell>
        <mxCell id="MUiipELaq2bzcH-Cd9GB-6" value="Login" style="ellipse;whiteSpace=wrap;html=1;fontSize=16;" vertex="1" parent="1">
          <mxGeometry x="500" y="510" width="160" height="80" as="geometry" />
        </mxCell>
        <mxCell id="MUiipELaq2bzcH-Cd9GB-8" value="Logout" style="ellipse;whiteSpace=wrap;html=1;fontSize=16;" vertex="1" parent="1">
          <mxGeometry x="500" y="670" width="160" height="80" as="geometry" />
        </mxCell>
        <mxCell id="MUiipELaq2bzcH-Cd9GB-10" value="" style="endArrow=block;dashed=1;endFill=0;endSize=12;html=1;rounded=0;exitX=0.5;exitY=0;exitDx=0;exitDy=0;entryX=0.5;entryY=1;entryDx=0;entryDy=0;" edge="1" parent="1" source="MUiipELaq2bzcH-Cd9GB-8" target="MUiipELaq2bzcH-Cd9GB-6">
          <mxGeometry width="160" relative="1" as="geometry">
            <mxPoint x="820" y="400" as="sourcePoint" />
            <mxPoint x="980" y="400" as="targetPoint" />
          </mxGeometry>
        </mxCell>
        <mxCell id="MUiipELaq2bzcH-Cd9GB-12" value="&lt;font style=&quot;font-size: 16px;&quot;&gt;&amp;lt;&amp;lt; extend &amp;gt;&amp;gt;&lt;/font&gt;" style="edgeLabel;html=1;align=center;verticalAlign=middle;resizable=0;points=[];" vertex="1" connectable="0" parent="MUiipELaq2bzcH-Cd9GB-10">
          <mxGeometry x="-0.0571" y="-2" relative="1" as="geometry">
            <mxPoint x="48" as="offset" />
          </mxGeometry>
        </mxCell>
        <mxCell id="MUiipELaq2bzcH-Cd9GB-15" value="Cadastrar Turmas" style="ellipse;whiteSpace=wrap;html=1;fontSize=16;" vertex="1" parent="1">
          <mxGeometry x="745" y="320" width="160" height="80" as="geometry" />
        </mxCell>
        <mxCell id="MUiipELaq2bzcH-Cd9GB-16" value="Listar Turmas" style="ellipse;whiteSpace=wrap;html=1;fontSize=16;" vertex="1" parent="1">
          <mxGeometry x="540" y="160" width="160" height="80" as="geometry" />
        </mxCell>
        <mxCell id="MUiipELaq2bzcH-Cd9GB-17" value="Cadastrar Atividades" style="ellipse;whiteSpace=wrap;html=1;fontSize=16;" vertex="1" parent="1">
          <mxGeometry x="1030" y="450" width="160" height="80" as="geometry" />
        </mxCell>
        <mxCell id="MUiipELaq2bzcH-Cd9GB-18" value="Listar Atividades" style="ellipse;whiteSpace=wrap;html=1;fontSize=16;" vertex="1" parent="1">
          <mxGeometry x="850" y="580" width="160" height="80" as="geometry" />
        </mxCell>
        <mxCell id="MUiipELaq2bzcH-Cd9GB-19" value="Cadastrar Atividades" style="ellipse;whiteSpace=wrap;html=1;fontSize=16;" vertex="1" parent="1">
          <mxGeometry x="990" y="160" width="160" height="80" as="geometry" />
        </mxCell>
        <mxCell id="MUiipELaq2bzcH-Cd9GB-22" value="" style="endArrow=block;dashed=1;endFill=0;endSize=12;html=1;rounded=0;exitX=1;exitY=0;exitDx=0;exitDy=0;entryX=0;entryY=1;entryDx=0;entryDy=0;" edge="1" parent="1" source="MUiipELaq2bzcH-Cd9GB-15" target="MUiipELaq2bzcH-Cd9GB-19">
          <mxGeometry width="160" relative="1" as="geometry">
            <mxPoint x="959" y="320" as="sourcePoint" />
            <mxPoint x="959" y="240" as="targetPoint" />
          </mxGeometry>
        </mxCell>
        <mxCell id="MUiipELaq2bzcH-Cd9GB-23" value="&lt;font style=&quot;font-size: 16px;&quot;&gt;&amp;lt;&amp;lt; extend &amp;gt;&amp;gt;&lt;/font&gt;" style="edgeLabel;html=1;align=center;verticalAlign=middle;resizable=0;points=[];" vertex="1" connectable="0" parent="MUiipELaq2bzcH-Cd9GB-22">
          <mxGeometry x="-0.0571" y="-2" relative="1" as="geometry">
            <mxPoint x="-40" y="-25" as="offset" />
          </mxGeometry>
        </mxCell>
        <mxCell id="MUiipELaq2bzcH-Cd9GB-24" value="" style="endArrow=block;dashed=1;endFill=0;endSize=12;html=1;rounded=0;exitX=1;exitY=1;exitDx=0;exitDy=0;entryX=0;entryY=0;entryDx=0;entryDy=0;" edge="1" parent="1" source="MUiipELaq2bzcH-Cd9GB-15" target="MUiipELaq2bzcH-Cd9GB-17">
          <mxGeometry width="160" relative="1" as="geometry">
            <mxPoint x="1000" y="410" as="sourcePoint" />
            <mxPoint x="1000" y="330" as="targetPoint" />
          </mxGeometry>
        </mxCell>
        <mxCell id="MUiipELaq2bzcH-Cd9GB-25" value="&lt;font style=&quot;font-size: 16px;&quot;&gt;&amp;lt;&amp;lt; extend &amp;gt;&amp;gt;&lt;/font&gt;" style="edgeLabel;html=1;align=center;verticalAlign=middle;resizable=0;points=[];" vertex="1" connectable="0" parent="MUiipELaq2bzcH-Cd9GB-24">
          <mxGeometry x="-0.0571" y="-2" relative="1" as="geometry">
            <mxPoint x="48" y="-15" as="offset" />
          </mxGeometry>
        </mxCell>
        <mxCell id="MUiipELaq2bzcH-Cd9GB-26" value="" style="endArrow=block;dashed=1;endFill=0;endSize=12;html=1;rounded=0;exitX=0.5;exitY=1;exitDx=0;exitDy=0;entryX=0;entryY=0;entryDx=0;entryDy=0;" edge="1" parent="1" source="MUiipELaq2bzcH-Cd9GB-15" target="MUiipELaq2bzcH-Cd9GB-18">
          <mxGeometry width="160" relative="1" as="geometry">
            <mxPoint x="890" y="540" as="sourcePoint" />
            <mxPoint x="890" y="460" as="targetPoint" />
          </mxGeometry>
        </mxCell>
        <mxCell id="MUiipELaq2bzcH-Cd9GB-27" value="&lt;font style=&quot;font-size: 16px;&quot;&gt;&amp;lt;&amp;lt; extend &amp;gt;&amp;gt;&lt;/font&gt;" style="edgeLabel;html=1;align=center;verticalAlign=middle;resizable=0;points=[];" vertex="1" connectable="0" parent="MUiipELaq2bzcH-Cd9GB-26">
          <mxGeometry x="-0.0571" y="-2" relative="1" as="geometry">
            <mxPoint x="59" y="-1" as="offset" />
          </mxGeometry>
        </mxCell>
      </root>
    </mxGraphModel>
  </diagram>
</mxfile>
